# xmcd
#
# Track frame offsets:
#	150
#	17239
#	32142
#	48975
#	66912
#	85057
#	104203
#	123668
#	140168
#	160074
#	178321
#	194888
#	214134
#	234028
#	253547
#	273371
#	294465
#	312823
#	328325
#
# Disc length: 4592 seconds
#
# Revision: 1
# Processed by: cddbd v1.5.2PL0 Copyright (c) Steve Scherf et al.
# Submitted via: audiograbber 1.83.01
#
DISCID=2a11ee13
DTITLE=Mario Lavezzi - Mario Lavezzi a più voci
DYEAR=2009
DGENRE=Pop
TTITLE0=Mario Lavezzi feat. Alexia - Biancaneve
TTITLE1=Mario Lavezzi feat. Gianni Morandi - Succede
TTITLE2=Mario Lavezzi feat. Ornella Vanoni - Insieme a te
TTITLE3=Mario Lavezzi feat. Cocciante e Dalla - Giorni leggeri
TTITLE4=Mario Lavezzi feat. Loredana Bertè - In alto mare
TTITLE5=Mario Lavezzi feat. Fiorella Mannoia - Momento delicato
TTITLE6=Mario Lavezzi - Varietà
TTITLE7=Mario Lavezzi feat. Marcella Bella - Dolcissima
TTITLE8=Mario Lavezzi feat. Teo Teocoli - La Locomotiva
TTITLE9=Mario Lavezzi feat. Veronica Piris - Passionalità
TTITLE10=Mario Lavezzi - Per fortuna che ci sei
TTITLE11=Mario Lavezzi feat. Bertè e Leali - Le tre verità
TTITLE12=Mario Lavezzi feat. Carboni, Mango, Valente - Bianche raffiche di vita
TTITLE13=Mario Lavezzi feat. Biagio Antonacci - La bandiera
TTITLE14=Mario Lavezzi - Vita
TTITLE15=Mario Lavezzi feat. altri - Insieme a te sto bene
TTITLE16=Mario Lavezzi feat. Ivana Spagna - Senza catene
TTITLE17=Mario Lavezzi feat. Mannoia e Bertè - Se rinasco
TTITLE18=Mario Lavezzi feat. Bella, Cocciante, Mango, Raf - Per la gloria
EXTD=
EXTT0=
EXTT1=
EXTT2=
EXTT3=
EXTT4=
EXTT5=
EXTT6=
EXTT7=
EXTT8=
EXTT9=
EXTT10=
EXTT11=
EXTT12=
EXTT13=
EXTT14=
EXTT15=
EXTT16=
EXTT17=
EXTT18=
PLAYORDER=
